<?xml version="1.0" encoding="UTF-8" standalone="no"?>
<!-- Created with Inkscape (http://www.inkscape.org/) -->

<svg
   xmlns:dc="http://purl.org/dc/elements/1.1/"
   xmlns:cc="http://creativecommons.org/ns#"
   xmlns:rdf="http://www.w3.org/1999/02/22-rdf-syntax-ns#"
   xmlns:svg="http://www.w3.org/2000/svg"
   xmlns="http://www.w3.org/2000/svg"
   xmlns:sodipodi="http://sodipodi.sourceforge.net/DTD/sodipodi-0.dtd"
   xmlns:inkscape="http://www.inkscape.org/namespaces/inkscape"
   version="1.1"
   id="svg14713"
   xml:space="preserve"
   width="800"
   height="800"
   viewBox="0 0 800 800"
   sodipodi:docname="dynamic-arrows-4-publicdomainvectors.org.svg"
   inkscape:version="0.92.4 (5da689c313, 2019-01-14)"><metadata
     id="metadata14719"><rdf:RDF><cc:Work
         rdf:about=""><dc:format>image/svg+xml</dc:format><dc:type
           rdf:resource="http://purl.org/dc/dcmitype/StillImage" /><dc:title></dc:title></cc:Work></rdf:RDF></metadata><defs
     id="defs14717"><clipPath
       clipPathUnits="userSpaceOnUse"
       id="clipPath14729"><path
         d="M 0,600 H 600 V 0 H 0 Z"
         id="path14727"
         inkscape:connector-curvature="0" /></clipPath><linearGradient
       x1="0"
       y1="0"
       x2="1"
       y2="0"
       gradientUnits="userSpaceOnUse"
       gradientTransform="matrix(1309.4121,0,0,-1309.4121,-381.49902,191.46777)"
       spreadMethod="pad"
       id="linearGradient14755"><stop
         style="stop-opacity:1;stop-color:#fff346"
         offset="0"
         id="stop14743" /><stop
         style="stop-opacity:1;stop-color:#dbde3e"
         offset="0.13270079"
         id="stop14745" /><stop
         style="stop-opacity:1;stop-color:#dbde3e"
         offset="0.28"
         id="stop14747" /><stop
         style="stop-opacity:1;stop-color:#38b73e"
         offset="0.67"
         id="stop14749" /><stop
         style="stop-opacity:1;stop-color:#31767f"
         offset="0.89"
         id="stop14751" /><stop
         style="stop-opacity:1;stop-color:#2e3192"
         offset="1"
         id="stop14753" /></linearGradient></defs><sodipodi:namedview
     pagecolor="#ffffff"
     bordercolor="#666666"
     borderopacity="1"
     objecttolerance="10"
     gridtolerance="10"
     guidetolerance="10"
     inkscape:pageopacity="0"
     inkscape:pageshadow="2"
     inkscape:window-width="1920"
     inkscape:window-height="1018"
     id="namedview14715"
     showgrid="false"
     inkscape:zoom="0.78512539"
     inkscape:cx="540.67797"
     inkscape:cy="374.57627"
     inkscape:window-x="-8"
     inkscape:window-y="-8"
     inkscape:window-maximized="1"
     inkscape:current-layer="g14721" /><g
     id="g14721"
     inkscape:groupmode="layer"
     inkscape:label="dynamic-arrows-4-publicdomainvectors.org"
     transform="matrix(1.3333333,0,0,-1.3333333,0,800)"><g
       id="g14723"><g
         id="g14725"
         clip-path="url(#clipPath14729)"><g
           id="g14731"><g
             id="g14733"><g
               id="g14739"><g
                 id="g14741"><path
                   d="m 62.916,166.596 c -3.997,13.752 -6.371,27.633 -7.599,41.075 -5.272,8.988 -9.758,18.416 -13.678,28.054 -0.517,-9.551 -0.216,-19.247 0.514,-29.223 -31.847,57.953 -37.993,129.442 -16.889,192.113 20.639,62.825 68.51,116.256 128.823,143.535 59.955,27.818 131.741,29.198 192.797,3.891 61.372,-24.809 111.233,-76.391 134.484,-138.275 l 9.374,3.549 C 466.515,475.789 414.623,529.455 350.695,555.312 287.065,581.675 212.397,580.238 149.907,551.26 87.088,522.836 37.268,467.242 15.755,401.786 -6.229,336.493 0.172,262.115 33.348,201.713 25.42,208.198 17.504,215.213 10.132,222.956 14.634,211.882 19.8,201.06 25.84,190.735 37.8,181.361 50.118,173.21 62.916,166.596 m -26.933,134.63 c 3.861,10.191 8.249,19.85 13.368,28.858 0.249,7.8 1.099,15.532 2.135,23.229 -4.17,-5.899 -8.229,-12.128 -11.949,-18.719 2.655,49.162 22.811,96.743 56.14,133.063 33.219,36.384 78.92,60.828 127.511,67.858 48.801,7.164 99.662,-2.554 141.8,-27.84 42.336,-25.008 75.617,-65.045 92.523,-111.084 l 7.838,2.885 c -17.569,47.842 -52.12,89.399 -96.092,115.377 -43.779,26.27 -96.633,36.37 -147.283,28.924 -50.489,-7.302 -97.973,-32.703 -132.457,-70.482 -34.609,-37.7 -55.564,-87.168 -58.318,-138.222 -2.913,7.227 -5.44,14.717 -7.72,22.494 -1.197,-8.754 -2.147,-17.55 -2.436,-26.403 4.27,-10.606 9.399,-20.627 14.94,-29.938 m 51.413,110.425 c 6.538,4.158 13.188,7.792 19.875,10.933 3.062,4.452 6.335,8.746 9.712,12.972 -4.79,-1.873 -9.855,-3.786 -14.648,-6.148 39.041,56.539 109.79,87.394 177.823,77.523 67.505,-8.162 128.196,-57.773 150.536,-122.049 l 6.292,2.249 c -23.15,66.597 -85.975,117.943 -155.935,126.421 -70.416,10.231 -143.777,-21.755 -184.175,-80.292 0.536,5.568 1.579,11.011 2.618,16.708 -3.81,-4.751 -7.493,-9.591 -10.94,-14.607 -0.902,-8.064 -1.277,-15.982 -1.158,-23.71 m 91.849,51.373 c 5.138,-0.554 10.063,-1.198 14.911,-2.224 3.09,1.458 6.325,2.558 9.49,3.821 -3.336,0.903 -6.734,1.641 -10.272,2.427 39.086,16.88 86.583,16.546 125.341,-1.033 39.252,-17.203 71.287,-51.814 84.966,-92.333 l 4.735,1.642 c -14.131,41.83 -47.152,77.51 -87.668,95.271 -40.031,18.144 -88.968,18.489 -129.336,1.064 2.06,2.928 4.192,5.99 6.478,8.956 -3.529,-1.394 -7.125,-2.638 -10.569,-4.251 -2.988,-4.346 -5.625,-8.906 -8.076,-13.34 m 87.863,-11.611 c 2.159,-1.998 4.145,-4.369 6.084,-6.412 1.865,-0.217 3.673,-0.695 5.525,-0.954 -1.281,1.557 -2.604,3.158 -3.974,4.799 45.784,-6.507 87.56,-41.466 101.755,-85.844 l 3.166,1.065 c -14.581,45.548 -57.404,81.391 -104.414,88.08 1.816,0.986 3.685,1.996 5.61,3.027 -2.021,0.292 -3.998,0.799 -6.032,1.04 -2.684,-1.665 -5.216,-3.037 -7.72,-4.801 m 50.458,-51.515 c 0.153,-1.237 0.19,-2.579 0.223,-3.883 l 1.687,-1.445 -0.105,2.711 c 13.859,-11.862 24.422,-27.521 29.779,-44.437 l 1.59,0.518 c -5.453,17.209 -16.191,33.129 -30.28,45.187 l 2.786,0.248 -1.783,1.529 c -1.296,-0.1 -2.559,-0.196 -3.897,-0.428 M 321.65,343.21 Z M 0.064,405.636 c 11.403,34.707 29.867,67.103 54.23,94.366 40.412,45.81 96.893,77.097 157.244,86.748 60.223,9.854 123.878,-1.236 176.721,-31.976 53.087,-30.207 95.137,-79.258 116.97,-136.29 l 7.791,3.003 C 490.498,480.311 447.154,530.862 392.417,562.014 337.915,593.713 272.271,605.154 210.198,594.992 147.953,585.039 89.708,552.768 48.05,505.546 27.965,483.074 11.764,457.203 0.064,429.434 Z m 403.29,194.031 C 468.153,564.961 520.266,507.252 547.282,438.67 l 4.656,1.858 C 525.6,507.374 475.817,564.039 413.69,599.667 Z m -306.592,0 c -1.584,-1.763 -3.144,-3.537 -4.682,-5.318 8.741,1.892 17.415,3.44 26.075,4.538 0.528,0.262 1.055,0.522 1.584,0.78 z m 351.074,0 c 2.964,-2.065 5.893,-4.18 8.787,-6.343 C 505.962,556.6 544.992,506.3 568.158,449.142 l 3.097,1.257 c -23.398,57.726 -62.812,108.519 -112.636,145.605 -1.654,1.237 -3.32,2.458 -4.998,3.663 z m 38.261,0 c 44.819,-37.383 80.48,-85.633 102.829,-139.794 l 1.545,0.637 C 568.273,514.306 533.005,562.293 488.697,599.667 Z M 609.585,470.859 Z M 451.967,599.667 c 8.118,-5.777 15.971,-11.92 23.52,-18.413 l 6.499,7.632 c -4.308,3.705 -8.713,7.3 -13.208,10.781 z m -50.094,0 c 20.525,-10.88 39.833,-24.031 57.406,-39.172 l 5.438,6.339 c -14.233,12.263 -29.575,23.254 -45.767,32.833 z m -83.023,0 c 44.963,-10.354 87.467,-31.478 122.207,-61.978 l 4.368,5.057 c -29.374,25.792 -64.188,45.035 -101.363,56.921 h 19.659 c 25.688,-10.08 49.984,-23.7 71.885,-40.444 43.254,-32.802 77.135,-77.723 96.92,-128.334 l -6.219,-2.44 c -19.338,49.468 -52.463,93.395 -94.754,125.462 -26.319,20.119 -56.162,35.621 -87.726,45.756 z m -104.699,0 c 1.398,-1.034 2.783,-2.087 4.155,-3.16 3.187,0.378 6.363,0.868 9.56,1.149 -0.82,0.685 -1.644,1.353 -2.473,2.011 z m 54.038,-19.682 c 2.497,-3.029 4.907,-6.059 7.231,-9.076 2.163,-0.199 4.341,-0.249 6.491,-0.563 -1.573,2.263 -3.214,4.294 -4.884,6.452 53.516,-4.338 105.264,-26.411 145.65,-61.779 l 3.29,3.78 c -41.168,36.056 -93.949,58.569 -148.512,62.993 2.046,1.819 4.149,3.759 6.27,5.455 -2.297,0.329 -4.621,0.394 -6.929,0.604 -2.955,-2.617 -5.824,-5.236 -8.607,-7.866 m 49.032,-38.35 2.841,-6.688 c 1.251,-0.312 2.45,-0.791 3.674,-1.19 l -1.869,4.835 c 30.237,-9.321 58.42,-25.217 82.275,-46.106 l 2.201,2.512 c -24.202,21.195 -52.803,37.326 -83.489,46.786 1.455,0.965 2.902,1.835 4.382,2.751 -1.287,0.419 -2.548,0.919 -3.863,1.25 -2.09,-1.374 -4.141,-2.758 -6.152,-4.15 m 32.94,-45.671 0.366,-3.489 1.471,-0.85 -0.241,2.444 c 12.004,-6.788 23.317,-14.844 33.692,-23.983 l 1.107,1.253 c -10.462,9.216 -21.871,17.34 -33.977,24.186 l 2.239,1.013 -1.513,0.874 z m 16.443,-48.137 z M 562.887,693.949 Z M 48.547,189.435 c 2.231,-3.641 4.711,-7.115 7.205,-10.579 1.216,5.248 2.384,10.253 3.977,15.337 26.696,-41.105 66.961,-73.136 112.661,-90.447 45.609,-17.48 97.188,-19.703 144.299,-6.743 l -2.646,9.668 c -45.059,-12.402 -94.508,-10.276 -138.107,6.45 -43.712,16.561 -82.283,47.224 -107.828,86.575 5.006,-0.577 10.247,-0.79 15.228,-0.968 -2.15,2.985 -4.297,5.972 -6.208,9.116 -7.187,0.527 -14.287,1.512 -21.539,2.813 -2.634,-6.84 -5.079,-13.973 -7.042,-21.222 m 54.18,-19.774 6.79,-6.469 c 0.376,4.257 0.833,8.425 1.365,12.499 25.598,-25.335 57.939,-43.482 92.563,-52.54 34.638,-8.813 72.152,-8.647 106.563,1.038 l -2.235,8.047 c -32.979,-9.291 -69.039,-9.445 -102.243,-0.998 -33.196,8.692 -64.222,26.088 -88.79,50.407 4.067,0.741 8.038,1.555 11.909,2.437 l -5.905,5.623 c -5.525,-1.002 -11.268,-1.879 -17.122,-2.533 -1.15,-5.68 -2.088,-11.491 -2.895,-17.511 m 53.789,-1.3 c 1.8,-1.111 3.509,-2.379 5.386,-3.359 -0.198,3.107 -0.214,6.375 -0.208,9.527 40.82,-26.497 93.729,-33.791 140.661,-20.453 l -1.81,6.432 c -45.13,-12.822 -96.052,-5.817 -135.274,19.664 2.792,1.383 5.476,2.73 8.206,4.312 -1.65,0.846 -3.136,1.977 -4.716,2.946 -3.896,-2.024 -7.92,-3.955 -11.957,-5.627 -0.301,-4.512 -0.364,-8.942 -0.288,-13.442 m 46.344,13.281 c 1.198,-0.494 2.456,-0.816 3.674,-1.251 -0.374,2.232 -0.71,4.442 -1.008,6.629 27.821,-10.258 60.313,-11.393 88.965,-3.118 l -1.375,4.819 c -27.628,-7.985 -59.054,-6.887 -85.867,3.004 1.637,1.58 3.23,3.164 4.777,4.752 -1.076,0.387 -2.194,0.66 -3.253,1.101 -2.232,-2.135 -4.553,-4.261 -6.964,-6.371 0.276,-3.139 0.626,-6.328 1.051,-9.565 m 35.532,24.747 2.019,-0.245 -1.136,4.165 c 15.732,-2.151 32.34,-0.975 47.138,3.357 l -0.928,3.207 c -14.341,-4.2 -30.485,-5.344 -45.756,-3.256 l 2.059,3.775 -1.824,0.219 c -0.981,-1.798 -2.005,-3.613 -3.038,-5.29 0.433,-2.051 0.932,-3.978 1.466,-5.932 m 22.961,31.951 0.741,0.053 -0.765,1.947 c 5.814,0.435 11.385,1.453 16.794,3.025 l -0.471,1.605 c -5.296,-1.54 -10.75,-2.536 -16.448,-2.962 l 0.426,2.03 -0.692,-0.05 -0.634,-2.902 z m 8.267,34.661 z M 64.591,133.682 c 2.716,-2.772 5.592,-5.383 8.381,-8.081 -0.073,4.669 -0.057,9.254 0.042,13.756 31.974,-31.781 72.306,-55.087 115.895,-66.567 43.567,-11.47 90.2,-11.38 133.677,0.464 l -2.186,8.059 c -42.045,-11.46 -87.226,-11.545 -129.359,-0.45 -42.162,11.104 -81.187,33.653 -112.136,64.412 4.53,0.288 8.971,0.659 13.322,1.106 -2.49,2.422 -5.072,4.749 -7.501,7.23 -6.139,-0.32 -12.605,-0.615 -18.964,-0.486 -0.682,-6.422 -0.937,-12.779 -1.171,-19.443 m 32.438,-51.752 8.418,-5.393 c -0.947,3.764 -1.827,7.49 -2.641,11.177 65.431,-43.06 149.339,-56.177 224.825,-35.474 l -1.735,6.452 C 252.214,38.484 170.295,51.289 106.447,93.316 c 3.665,0.815 7.267,1.672 10.803,2.569 l -7.753,4.97 c -5.17,-1.271 -10.24,-2.119 -15.543,-3.035 0.892,-5.217 1.802,-10.683 3.075,-15.89 m 46.11,-45.803 c 2.495,-0.956 4.954,-2.008 7.482,-2.871 -1.43,2.578 -2.75,5.329 -4.066,7.966 59.02,-22.898 124.953,-26.414 186.026,-10.021 l -1.29,4.843 C 271.245,19.922 206.377,23.383 148.36,45.896 c 2.721,1.104 5.365,2.125 8.036,3.346 -2.389,0.814 -4.708,1.813 -7.064,2.715 -3.791,-1.529 -7.697,-3.106 -11.617,-4.492 1.693,-3.824 3.535,-7.527 5.424,-11.338 m 123.73,-36.459 c 23.77,0.86 47.455,4.337 70.569,10.469 l -0.852,3.23 C 293.294,1.882 247.958,-0.191 203.873,6.895 c 1.726,1.035 3.437,2.101 5.14,3.247 -1.817,0.203 -3.615,0.541 -5.416,0.858 L 196.2,6.562 c 1.815,-2.246 3.67,-4.494 5.563,-6.745 l 0.845,-0.149 h 4.097 c -1.14,1.272 -2.26,2.591 -3.363,3.928 13.265,-2.132 26.642,-3.444 40.043,-3.928 z m 79.992,-31.732 z m 58.428,554.109 c -76.6,59.207 -188.387,66.58 -272.285,18.492 C 90.969,517.105 55.949,481.223 33.55,438.634 11.032,396.116 1.253,347.005 5.836,299.007 10.14,251.057 28.765,204.603 58.737,166.91 c 29.832,-37.783 70.77,-66.701 116.388,-81.959 45.539,-15.357 95.706,-17.168 142.295,-5.215 46.615,11.929 89.52,37.809 122.004,73.366 l -7.373,6.755 C 400.854,125.711 359.66,100.869 314.93,89.422 270.227,77.949 221.991,79.691 178.313,94.429 c -43.774,14.639 -83.09,42.407 -111.737,78.69 -28.781,36.199 -46.646,80.763 -50.782,126.798 -4.403,46.127 4.99,93.238 26.6,134.05 21.499,40.881 55.14,75.351 95.492,97.843 80.512,46.148 187.885,39.086 261.387,-17.753 z M 0.064,386.369 c 4.537,18.122 11.018,35.752 19.419,52.463 24.369,49.012 64.285,90.296 112.848,115.697 48.392,25.706 104.946,35.388 159.192,27.76 l 1.38,9.904 C 236.626,600.112 177.907,590.063 127.658,563.37 77.246,536.993 35.828,494.169 10.527,443.282 6.644,435.553 3.155,427.636 0.064,419.57 Z m 0,-161.578 c 13.815,-36.094 35.3,-69.258 62.805,-96.43 l 7.041,7.101 C 36.045,168.922 11.667,211.781 0.064,257.909 Z M 166.54,599.667 C 98.417,578.145 39.138,530.564 3.315,468.816 l 8.634,-5.045 c 36.223,62.443 97.311,109.896 166.981,129.136 0,0 -1.099,3.923 -1.894,6.76 z m -39.774,0 C 111.709,592.729 97.227,584.559 83.541,575.224 l 5.613,-8.276 c 19.79,13.496 41.292,24.473 63.798,32.719 h 12.876 C 153.712,595.799 141.851,591.118 130.355,585.625 82.344,562.899 40.874,526.849 11.628,482.557 c 6.307,4.594 12.567,9.001 19.109,12.93 C 25.494,488.73 20.503,481.757 15.959,474.505 10.52,470.489 5.238,466.185 0.064,461.64 v 11.302 c 25.821,43.549 62.897,80.297 106.766,105.606 l 5.008,-8.656 C 64.303,542.47 25.004,501.125 0.064,452.227 v 7.586 c 22.672,41.866 55.759,78 95.529,104.172 l -5.508,8.347 C 53.824,548.468 22.94,516.608 0.064,479.727 v 11.946 c 4.017,6.064 8.301,11.951 12.756,17.692 -2.677,-7.637 -4.81,-15.451 -6.763,-23.12 29.916,45.305 72.325,82.172 121.443,105.42 6.041,2.887 12.181,5.554 18.404,8.002 z m 256.782,0 c 25.948,-11.978 50.214,-27.562 71.697,-46.4 l 6.552,7.555 c -17.104,15.001 -35.923,28.006 -55.934,38.845 z m -279.493,0 C 73.787,583.222 46.193,561.898 22.949,536.54 l 7.342,-6.79 c 26.915,29.358 59.833,53.126 95.995,69.917 z m 293.514,0 C 460.21,567.2 512.016,513.732 540.225,448.71 l 9.138,4.061 c -26.671,61.474 -73.767,112.934 -131.182,146.896 z m -306.029,0 C 56.296,578.884 25.041,551.444 0.064,519.069 v -16.852 c 28.785,40.922 67.671,74.525 112.161,97.45 z m 310.521,0 c 21.779,-11.549 42.195,-25.642 60.621,-41.965 45.327,-39.864 78.867,-93.081 94.954,-151.458 l 9.635,2.674 c -16.605,60.252 -51.213,115.158 -97.974,156.283 -14.541,12.882 -30.286,24.42 -46.945,34.466 z m -314.553,0 C 54.011,579.415 24.258,553.097 0.064,522.36 v -16.609 c 28.119,38.971 65.22,71.364 107.707,93.916 z m 216.751,-59.823 c -45.346,10.259 -94.161,6.039 -136.796,-12.25 C 124.706,509.368 87.815,477.327 63.728,437.488 39.591,397.663 28.582,350.387 32.439,303.795 36.058,257.38 54.689,212.443 85.148,177.117 l 7.602,6.498 c -29.11,33.762 -46.884,76.647 -50.343,120.986 -3.682,44.564 6.828,89.663 29.876,127.71 23.01,38.055 58.277,68.68 99.101,86.084 40.679,17.46 87.369,21.493 130.677,11.693 z M 230.18,521.799 C 178.942,515.807 130.659,488.82 98.234,448.38 l 7.781,-6.282 c 30.839,38.454 76.709,64.086 125.379,69.775 z m -41.705,-38.676 c 30.624,12.854 65.708,16.324 98.664,10.115 l 1.833,9.83 c -34.844,6.561 -71.882,2.896 -104.317,-10.704 z m -22.687,-25.837 c 34.479,23.089 78.011,31.749 119.176,23.925 40.622,-7.392 78.18,-31.552 102.204,-65.695 l 8.159,5.782 c -25.491,36.229 -65.35,61.881 -108.527,69.743 -43.654,8.305 -89.904,-0.894 -126.529,-25.415 z m -10.247,-16.794 c 21.029,17.522 46.311,29.602 73.138,33.946 26.936,4.65 55.416,1.937 80.594,-7.556 51.232,-18.692 90.782,-67.227 98.483,-120.956 l 9.884,1.521 c -8.23,57.278 -50.279,108.873 -104.851,128.797 -26.86,10.122 -57.12,12.997 -85.788,8.052 -28.577,-4.638 -55.53,-17.499 -77.896,-36.15 z m -2.873,-5.698 c 21.801,19.84 49.065,32.998 77.867,37.507 29.102,4.596 59.526,0.793 85.964,-11.046 54.123,-23.406 91.431,-80.217 90.632,-139.184 h 10 c 0.843,62.837 -38.903,123.403 -96.578,148.325 -28.223,12.63 -60.616,16.68 -91.6,11.779 -30.714,-4.811 -59.799,-18.852 -83.008,-39.978 z M 0.064,416.986 c 7.017,18.877 16.125,36.975 27.2,53.811 l -8.367,5.476 C 11.839,465.547 5.551,454.324 0.064,442.721 Z m 0,-215.537 C 9.302,181.961 20.762,163.531 34.21,146.691 70.622,100.574 121.9,66.449 178.545,50.652 235.14,34.703 296.56,36.985 351.824,57.189 l -3.436,9.391 C 295.122,47.102 235.812,44.898 181.25,60.279 126.636,75.509 77.162,108.422 42.036,152.918 24.241,175.206 10.058,200.364 0.064,227.085 Z m 31.828,-91.64 C 86.04,52.377 163.373,17.201 242.367,14.404 l 0.403,9.992 C 166.331,27.107 91.548,61.122 39.134,116.703 Z M 316.152,-0.332 c 4.697,0.888 9.374,1.877 14.032,2.97 l -2.286,9.735 C 268.265,-1.617 204.944,1.72 147.169,22.633 l -3.387,-9.409 c 16.169,-5.85 32.751,-10.368 49.561,-13.556 h 13.362 c -1.14,1.272 -2.26,2.591 -3.363,3.928 13.265,-2.132 26.642,-3.444 40.043,-3.928 z m -142.905,0 C 139.404,8.187 106.88,21.98 77.369,40.826 L 72.024,32.375 C 93.027,18.964 115.508,8.036 138.895,-0.332 Z m 198.017,0 c 67.675,24.48 127.209,70.627 167.359,130.221 l -8.275,5.615 C 485.395,68.781 415.415,19.422 337.175,-0.332 Z m -228.441,0 C 104.227,13.136 68.078,33.592 36.736,59.638 l -6.397,-7.687 c 25.626,-21.3 54.383,-38.968 85.047,-52.283 z m 251.773,0 c 52.178,22.52 98.38,58.068 133.949,102.128 35.687,43.901 60.17,96.969 71.122,152.602 v 16.088 c -2.929,0.436 -7.174,1.067 -7.174,1.067 C 583.565,212.002 558.684,154.721 520.758,108.07 483.027,61.338 432.986,24.451 376.533,3.148 c -3.159,-1.209 -6.335,-2.369 -9.526,-3.48 z m -260.372,0 C 93.476,14.951 55.646,37.978 23.587,67.215 L 16.864,59.812 C 43.849,35.202 74.813,14.865 108.148,-0.332 Z m 267.374,0 c 61.068,27.741 113.627,73.05 150.125,129.156 22.361,34.064 38.564,72.263 47.944,111.991 v 81.256 h -0.536 C 599.252,256.104 579.658,189.607 543.347,134.287 507.259,78.81 455,34.186 394.336,7.373 388.134,4.611 381.853,2.043 375.504,-0.332 Z M 37.057,406.25 C 14.624,348.782 16.442,281.964 42.1,225.88 67.37,169.508 116.148,123.993 174.186,102.834 l 3.457,9.384 C 122.116,132.455 75.385,176.061 51.209,230.004 26.659,283.632 24.918,347.682 46.384,402.644 Z m 94.881,-256.416 c -33.181,23.67 -59.345,57.16 -74.109,95.014 l -9.309,-3.651 c 15.472,-39.662 42.858,-74.712 77.599,-99.495 z M 289.841,120.533 C 226.396,109.227 159.097,129.754 113.105,174.742 66.542,219.101 43.168,285.416 52.229,349.304 l -9.913,1.316 c -9.504,-66.931 15.03,-136.604 63.853,-183.081 48.203,-47.17 118.89,-68.727 185.363,-56.861 z m 50.256,18.149 c -35.091,-16.419 -75.193,-22.34 -113.856,-16.74 -38.468,5.398 -75.109,22.267 -104.408,48.006 -29.365,25.64 -51.06,59.866 -61.485,97.203 -10.514,37.237 -10.058,78.183 1.477,115.108 l -9.548,2.972 c -12.112,-38.796 -12.592,-81.672 -1.555,-120.79 10.95,-39.21 33.719,-75.121 64.523,-102.015 30.73,-27.001 69.21,-44.721 109.593,-50.385 40.542,-5.871 82.622,0.332 119.478,17.575 z M 74.215,303.103 c -3.547,35.118 2.976,70.666 18.951,101.662 l -8.899,4.562 C 67.403,376.61 60.521,339.067 64.268,302.077 Z m 77.077,-105.777 c -24.124,20.014 -42.232,47.102 -51.352,76.726 -9.217,29.447 -9.473,62.693 -1.009,92.381 16.232,60.206 71.426,108.465 133.214,116.197 l -1.385,9.904 C 165.088,484.285 106.579,433.132 89.31,369.16 c -8.991,-31.568 -8.713,-66.743 1.077,-98.062 9.693,-31.484 28.914,-60.224 54.507,-81.458 z M 384.32,599.667 c 10.279,-4.786 20.284,-10.153 29.943,-16.086 l 5.21,8.535 c -4.273,2.625 -8.611,5.142 -13.008,7.551 z m -280.81,0 C 93.555,594.237 83.901,588.264 74.615,581.77 45.961,561.896 20.715,537.215 0.064,509.13 v -17.42 c 21.341,31.979 48.663,59.935 80.26,81.85 14.315,10.009 29.527,18.739 45.38,26.107 z M 0.064,216.836 c 0.578,0.239 0.938,0.388 0.938,0.388 -0.316,0.758 -0.629,1.519 -0.938,2.281 z m 0,-25.013 c 9.182,-17.949 20.25,-34.927 33.012,-50.516 34.72,-42.694 81.977,-75.095 134.495,-91.803 l -3.05,-9.524 C 110.15,57.28 61.253,90.811 25.327,134.986 16.012,146.364 7.567,158.461 0.064,171.122 Z M 492.021,-0.332 c 42.778,30.641 79.704,69.545 107.646,114.162 v 29.791 c -2.474,-4.547 -5.044,-9.043 -7.71,-13.486 C 560.812,77.409 516.743,32.472 465.111,-0.332 Z m 44.44,599.999 c 24.932,-25.706 46.217,-54.832 63.206,-86.241 v 29.879 c -12.519,19.959 -26.77,38.848 -42.579,56.362 z m -79.76,0 C 554.909,528.466 608.071,403.444 590.614,283.131 575.895,161.381 486.418,51.92 370.49,11.629 l 4.058,-11.348 c 114.066,39.653 203.325,143.837 225.119,262.29 v 131.413 c -15.519,80.024 -59.051,154.321 -123.089,205.683 z m -20.476,0 c 0.77,-1.572 1.525,-3.146 2.265,-4.722 8.03,-5.523 15.774,-11.426 23.395,-17.518 -2.837,7.259 -5.727,14.867 -9.105,22.24 z m 75.201,-134.533 c -0.999,-9.267 -2.162,-18.148 -4.012,-26.893 2.63,-5.572 4.614,-11.408 6.893,-17.116 1.628,6.018 2.96,12.146 4.377,18.527 30.444,-70.495 29.841,-156.159 -1.864,-226.06 C 485.793,142.797 423.371,85.019 350.291,60.35 l 2.963,-8.539 c 75.442,25.484 139.794,85.042 171.828,158.113 32.721,72.198 33.345,160.46 1.918,233.266 5.28,-3.715 10.804,-7.56 16.152,-11.684 -2.513,6.366 -4.757,12.851 -7.667,19.063 -7.839,5.388 -16.061,10.145 -24.059,14.565 M 490.482,306.667 c -3.601,-3.894 -7.877,-7.476 -11.561,-10.974 -0.394,-3.363 -1.255,-6.623 -1.722,-9.963 2.811,2.311 5.697,4.698 8.656,7.166 C 474.119,210.322 411.068,134.977 331.03,109.375 l 1.921,-5.71 c 82.149,26.298 146.794,103.533 158.858,188.316 1.779,-3.274 3.599,-6.643 5.46,-10.116 0.526,3.645 1.438,7.211 1.875,10.879 -3.002,4.84 -5.478,9.406 -8.662,13.923 m -92.908,-91.005 c -2.23,-0.273 -4.651,-0.341 -7.004,-0.402 l -2.605,-3.041 4.888,0.189 c -21.392,-24.996 -49.634,-44.049 -80.145,-53.71 l 0.936,-2.866 c 31.037,9.833 59.751,29.201 81.497,54.611 l 0.449,-5.023 2.755,3.214 c -0.179,2.339 -0.353,4.614 -0.771,7.028 m -102.241,-7.364 z m 230.224,-519.311 z m 74.11,416.825 C 589.074,89.59 577.336,74.104 564.563,59.518 l 4.529,-3.969 c 10.966,12.522 21.18,25.697 30.575,39.426 z m -28.832,51.063 -6.292,-0.66 -1.533,-2.652 4.408,0.435 C 555.175,132.348 540.646,111.942 524.163,93.23 l 2.261,-1.994 c 16.62,18.868 31.272,39.446 43.621,61.279 l 1.825,-4.039 1.576,2.73 z M 484.017,127.219 Z M 927.913,-226.789 Z M 0.064,488.441 c 0.404,0.634 0.811,1.266 1.221,1.896 2.491,-5.035 4.922,-9.876 7.777,-14.8 1.526,2.977 3.564,5.657 5.312,8.505 -3.649,7.028 -7.132,14.284 -10.148,21.567 -1.392,0.093 -2.778,0.173 -4.162,0.241 z m 0,-191.949 c 1.624,-13.338 4.271,-26.484 7.947,-39.211 l 8.692,2.48 c -14.402,49.827 -12.422,106.508 5.418,154.867 2.848,-2.953 5.705,-5.825 8.569,-8.617 0.7,1.942 1.191,3.958 1.986,5.867 -3.851,4.026 -7.683,8.212 -11.489,12.561 -5.661,-0.498 -11.413,-1.128 -17.252,-1.897 -0.889,-2.16 -1.471,-4.429 -2.257,-6.625 4.028,0.674 8.012,1.28 11.955,1.818 -6.67,-18.089 -11.2,-37.273 -13.569,-56.832 z m 48.504,61.967 -0.443,-3.641 7.511,2.048 c -3.877,-28.374 -1.758,-58.328 6.055,-85.016 l 5.787,1.673 c -7.576,25.865 -9.638,54.981 -5.874,82.524 l 6.808,-3.712 0.396,3.289 c -3.243,1.768 -6.516,3.615 -9.54,5.479 -3.701,-0.781 -7.177,-1.682 -10.7,-2.644 m 57.624,-41.412 0.097,-1.336 3.512,1.379 c 0.784,-10.485 2.62,-20.533 5.456,-30.288 l 2.894,0.848 c -2.777,9.551 -4.573,19.39 -5.343,29.665 l 3.662,-0.767 -0.09,1.248 -5.234,1.143 z m 62.515,-14.91 z M -381.499,162.826 Z m 911.553,436.841 c 27.886,-28.131 51.509,-60.493 69.613,-95.631 v 36.501 c -13.071,21.001 -28.079,40.817 -44.745,59.13 z m -54.386,0 c -1.18,-1.461 -1.984,-2.458 -1.984,-2.458 69.354,-55.619 115.584,-138.349 125.843,-226.128 0,0 0.048,0.005 0.14,0.017 v 78.25 c -20.312,57.381 -55.236,109.669 -100.949,150.319 z m 72.007,-151.18 c 23.183,-55.232 29.442,-118.508 18.243,-177.948 l 17.729,-3.305 c 11.835,62.842 5.224,129.643 -19.304,188.142 z m -46.599,40.917 C 542.719,427.219 558.337,348.707 544.227,274.463 530.896,201.197 487.32,133.461 425.742,90.131 L 436.17,75.416 c 65.342,45.975 111.606,117.863 125.786,195.734 14.979,78.735 -1.611,162.15 -45.836,228.204 z m -30.289,18.482 c 31.604,-37.927 53.391,-83.525 61.226,-131.91 8.385,-48.58 3.493,-99.945 -13.628,-145.357 C 484.672,138.221 397.136,66.889 300.231,53 l 2.745,-17.826 c 103.303,14.842 196.358,90.68 232.293,189.103 18.255,48.446 23.441,103.021 14.523,154.726 -8.365,51.54 -31.562,100.152 -65.2,140.49 z m -10.276,5.181 c 35.783,-39.319 59.512,-88.492 67.646,-140.439 8.291,-52.486 1.43,-107.357 -19.922,-155.04 C 466.021,119.973 363.559,52.686 257.208,54.128 V 36.092 c 113.331,-1.52 222.563,70.164 267.514,174.183 22.78,50.904 30.084,109.327 21.244,165.207 -8.677,55.395 -34.001,107.851 -72.103,149.711 z M 544.088,-0.332 c 20.233,17.654 38.872,37.141 55.579,58.149 V 29.627 C 590.539,19.218 580.939,9.219 570.913,-0.332 Z m 50.969,599.999 c 1.553,-1.931 3.089,-3.875 4.61,-5.833 v 5.63 c -0.054,0.068 -0.108,0.136 -0.162,0.203 z m -227.218,0 c 93.997,-38.172 166.342,-129.198 178.949,-229.94 l 17.86,2.497 C 552.793,466.609 491.8,552.791 409.127,599.667 Z m -262.337,0 C 72.461,581.081 42.681,556.402 18.359,527.088 L 32.222,515.55 c 30.671,36.969 70.552,66.104 114.625,84.117 z M 492.021,-0.332 c 42.778,30.641 79.704,69.545 107.646,114.162 v 29.791 c -2.474,-4.547 -5.044,-9.043 -7.71,-13.486 C 560.812,77.409 516.743,32.472 465.111,-0.332 Z m 44.44,599.999 c 24.932,-25.706 46.217,-54.832 63.206,-86.241 v 29.879 c -12.519,19.959 -26.77,38.848 -42.579,56.362 z m -79.76,0 C 554.909,528.466 608.071,403.444 590.614,283.131 575.895,161.381 486.418,51.92 370.49,11.629 l 4.058,-11.348 c 114.066,39.653 203.325,143.837 225.119,262.29 v 131.413 c -15.519,80.024 -59.051,154.321 -123.089,205.683 z m -20.476,0 c 0.77,-1.572 1.525,-3.146 2.265,-4.722 8.03,-5.523 15.774,-11.426 23.395,-17.518 -2.837,7.259 -5.727,14.867 -9.105,22.24 z m 75.201,-134.533 c -0.999,-9.267 -2.162,-18.148 -4.012,-26.893 2.63,-5.572 4.614,-11.408 6.893,-17.116 1.628,6.018 2.96,12.146 4.377,18.527 30.444,-70.495 29.841,-156.159 -1.864,-226.06 C 485.793,142.797 423.371,85.019 350.291,60.35 l 2.963,-8.539 c 75.442,25.484 139.794,85.042 171.828,158.113 32.721,72.198 33.345,160.46 1.918,233.266 5.28,-3.715 10.804,-7.56 16.152,-11.684 -2.513,6.366 -4.757,12.851 -7.667,19.063 -7.839,5.388 -16.061,10.145 -24.059,14.565 M 490.482,306.667 c -3.601,-3.894 -7.877,-7.476 -11.561,-10.974 -0.394,-3.363 -1.255,-6.623 -1.722,-9.963 2.811,2.311 5.697,4.698 8.656,7.166 C 474.119,210.322 411.068,134.977 331.03,109.375 l 1.921,-5.71 c 82.149,26.298 146.794,103.533 158.858,188.316 1.779,-3.274 3.599,-6.643 5.46,-10.116 0.526,3.645 1.438,7.211 1.875,10.879 -3.002,4.84 -5.478,9.406 -8.662,13.923 m -92.908,-91.005 c -2.23,-0.273 -4.651,-0.341 -7.004,-0.402 l -2.605,-3.041 4.888,0.189 c -21.392,-24.996 -49.634,-44.049 -80.145,-53.71 l 0.936,-2.866 c 31.037,9.833 59.751,29.201 81.497,54.611 l 0.449,-5.023 2.755,3.214 c -0.179,2.339 -0.353,4.614 -0.771,7.028 m -102.241,-7.364 z m 230.224,-519.311 z m 74.11,416.825 C 589.074,89.59 577.336,74.104 564.563,59.518 l 4.529,-3.969 c 10.966,12.522 21.18,25.697 30.575,39.426 z m -28.832,51.063 -6.292,-0.66 -1.533,-2.652 4.408,0.435 C 555.175,132.348 540.646,111.942 524.163,93.23 l 2.261,-1.994 c 16.62,18.868 31.272,39.446 43.621,61.279 l 1.825,-4.039 1.576,2.73 z M 484.017,127.219 Z M 927.913,-226.789 Z M 0.064,488.441 c 0.404,0.634 0.811,1.266 1.221,1.896 2.491,-5.035 4.922,-9.876 7.777,-14.8 1.526,2.977 3.564,5.657 5.312,8.505 -3.649,7.028 -7.132,14.284 -10.148,21.567 -1.392,0.093 -2.778,0.173 -4.162,0.241 z m 0,-191.949 c 1.624,-13.338 4.271,-26.484 7.947,-39.211 l 8.692,2.48 c -14.402,49.827 -12.422,106.508 5.418,154.867 2.848,-2.953 5.705,-5.825 8.569,-8.617 0.7,1.942 1.191,3.958 1.986,5.867 -3.851,4.026 -7.683,8.212 -11.489,12.561 -5.661,-0.498 -11.413,-1.128 -17.252,-1.897 -0.889,-2.16 -1.471,-4.429 -2.257,-6.625 4.028,0.674 8.012,1.28 11.955,1.818 -6.67,-18.089 -11.2,-37.273 -13.569,-56.832 z m 48.504,61.967 -0.443,-3.641 7.511,2.048 c -3.877,-28.374 -1.758,-58.328 6.055,-85.016 l 5.787,1.673 c -7.576,25.865 -9.638,54.981 -5.874,82.524 l 6.808,-3.712 0.396,3.289 c -3.243,1.768 -6.516,3.615 -9.54,5.479 -3.701,-0.781 -7.177,-1.682 -10.7,-2.644 m 57.624,-41.412 0.097,-1.336 3.512,1.379 c 0.784,-10.485 2.62,-20.533 5.456,-30.288 l 2.894,0.848 c -2.777,9.551 -4.573,19.39 -5.343,29.665 l 3.662,-0.767 -0.09,1.248 -5.234,1.143 z m 62.515,-14.91 z M -381.499,162.826 Z m 911.553,436.841 c 27.886,-28.131 51.509,-60.493 69.613,-95.631 v 36.501 c -13.071,21.001 -28.079,40.817 -44.745,59.13 z m -54.386,0 c -1.18,-1.461 -1.984,-2.458 -1.984,-2.458 69.354,-55.619 115.584,-138.349 125.843,-226.128 0,0 0.048,0.005 0.14,0.017 v 78.25 c -20.312,57.381 -55.236,109.669 -100.949,150.319 z m 72.007,-151.18 c 23.183,-55.232 29.442,-118.508 18.243,-177.948 l 17.729,-3.305 c 11.835,62.842 5.224,129.643 -19.304,188.142 z m -46.599,40.917 C 542.719,427.219 558.337,348.707 544.227,274.463 530.896,201.197 487.32,133.461 425.742,90.131 L 436.17,75.416 c 65.342,45.975 111.606,117.863 125.786,195.734 14.979,78.735 -1.611,162.15 -45.836,228.204 z m -30.289,18.482 c 31.604,-37.927 53.391,-83.525 61.226,-131.91 8.385,-48.58 3.493,-99.945 -13.628,-145.357 C 484.672,138.221 397.136,66.889 300.231,53 l 2.745,-17.826 c 103.303,14.842 196.358,90.68 232.293,189.103 18.255,48.446 23.441,103.021 14.523,154.726 -8.365,51.54 -31.562,100.152 -65.2,140.49 z m -10.276,5.181 c 35.783,-39.319 59.512,-88.492 67.646,-140.439 8.291,-52.486 1.43,-107.357 -19.922,-155.04 C 466.021,119.973 363.559,52.686 257.208,54.128 V 36.092 c 113.331,-1.52 222.563,70.164 267.514,174.183 22.78,50.904 30.084,109.327 21.244,165.207 -8.677,55.395 -34.001,107.851 -72.103,149.711 z M 544.088,-0.332 c 20.233,17.654 38.872,37.141 55.579,58.149 V 29.627 C 590.539,19.218 580.939,9.219 570.913,-0.332 Z m 50.969,599.999 c 1.553,-1.931 3.089,-3.875 4.61,-5.833 v 5.63 c -0.054,0.068 -0.108,0.136 -0.162,0.203 z m -227.218,0 c 93.997,-38.172 166.342,-129.198 178.949,-229.94 l 17.86,2.497 C 552.793,466.609 491.8,552.791 409.127,599.667 Z m -262.337,0 C 72.461,581.081 42.681,556.402 18.359,527.088 L 32.222,515.55 c 30.671,36.969 70.552,66.104 114.625,84.117 z"
                   style="fill:url(#linearGradient14755);stroke:none"
                   id="path14757"
                   inkscape:connector-curvature="0" /></g></g></g></g></g></g></g></svg>